<svg width="325" height="117" viewBox="0 0 325 117" fill="none" xmlns="http://www.w3.org/2000/svg">
<path d="M41.648 20.416C41.648 16.576 40.928 13.888 39.488 12.352C38.144 10.72 35.744 9.90399 32.288 9.90399H0.608L0.0319996 2.70399C15.392 1.35999 26.432 0.687991 33.152 0.687991C45.344 0.687991 51.44 7.26399 51.44 20.416H56.192L59.072 29.488H48.992C48.128 32.176 47.024 35.632 45.68 39.856C44.336 44.08 42.56 50.8 40.352 60.016C38.144 69.232 37.04 76.144 37.04 80.752C37.04 84.592 37.664 87.808 38.912 90.4C40.256 92.896 42.752 95.248 46.4 97.456L67.712 110.128L65.12 116.032C64.64 115.936 63.968 115.696 63.104 115.312C62.24 115.024 60.608 114.448 58.208 113.584C55.904 112.72 53.744 111.904 51.728 111.136C49.808 110.272 47.792 109.36 45.68 108.4C43.568 107.44 41.984 106.672 40.928 106.096C33.632 101.776 29.216 96.352 27.68 89.824C27.008 87.04 26.672 83.536 26.672 79.312C26.672 75.568 28.064 68.368 30.848 57.712C33.632 47.056 35.84 39.04 37.472 33.664C39.104 28.288 40.496 23.872 41.648 20.416ZM121.501 25.888V20.416L124.669 8.752H132.013V20.416H146.413V29.488H132.013V112H121.501V39.424C121.501 37.408 119.389 35.584 115.165 33.952C111.037 32.224 107.149 31.36 103.501 31.36C96.1085 31.36 92.4125 35.296 92.4125 43.168C92.4125 47.68 92.7485 50.848 93.4205 52.672C94.0925 54.4 95.6765 55.984 98.1725 57.424C99.7085 58.288 101.533 59.248 103.645 60.304C105.853 61.36 107.629 62.176 108.973 62.752L111.133 63.616L108.541 71.392C104.701 70.816 101.005 69.808 97.4525 68.368C95.7245 67.696 94.0445 66.928 92.4125 66.064C90.7805 65.104 89.5805 64.384 88.8125 63.904L87.6605 63.04C85.7405 64.864 82.5725 66.64 78.1565 68.368C76.4285 69.04 74.3645 69.664 71.9645 70.24C69.5645 70.816 67.5965 71.2 66.0605 71.392L63.9005 71.824L61.7405 63.472C66.0605 61.936 70.2365 60.208 74.2685 58.288C77.3405 56.848 79.2605 55.168 80.0285 53.248C80.8925 51.328 81.3245 47.728 81.3245 42.448C81.3245 38.8 80.7485 36.112 79.5965 34.384C78.4445 32.656 76.5245 31.648 73.8365 31.36C62.4125 30.112 54.8765 29.488 51.2285 29.488V20.416H75.8525C78.9245 20.416 81.4205 20.8 83.3405 21.568C85.3565 22.24 87.1805 23.632 88.8125 25.744C90.6365 23.632 92.4125 22.288 94.1405 21.712C95.8685 21.04 98.1725 20.704 101.053 20.704C109.597 20.704 116.413 22.432 121.501 25.888ZM214.313 25.888V20.416L217.481 8.752H224.825V20.416H239.225V29.488H224.825V112H214.313V39.424C214.313 37.408 212.201 35.584 207.977 33.952C203.849 32.224 199.961 31.36 196.313 31.36C188.921 31.36 185.225 35.296 185.225 43.168C185.225 47.68 185.561 50.848 186.233 52.672C186.905 54.4 188.489 55.984 190.985 57.424C192.521 58.288 194.345 59.248 196.457 60.304C198.665 61.36 200.441 62.176 201.785 62.752L203.945 63.616L201.353 71.392C197.513 70.816 193.817 69.808 190.265 68.368C188.537 67.696 186.857 66.928 185.225 66.064C183.593 65.104 182.393 64.384 181.625 63.904L180.473 63.04C178.553 64.864 175.385 66.64 170.969 68.368C169.241 69.04 167.177 69.664 164.777 70.24C162.377 70.816 160.409 71.2 158.873 71.392L156.713 71.824L154.553 63.472C158.873 61.936 163.049 60.208 167.081 58.288C170.153 56.848 172.073 55.168 172.841 53.248C173.705 51.328 174.137 47.728 174.137 42.448C174.137 38.8 173.561 36.112 172.409 34.384C171.257 32.656 169.337 31.648 166.649 31.36C155.225 30.112 147.689 29.488 144.041 29.488V20.416H168.665C171.737 20.416 174.233 20.8 176.153 21.568C178.169 22.24 179.993 23.632 181.625 25.744C183.449 23.632 185.225 22.288 186.953 21.712C188.681 21.04 190.985 20.704 193.865 20.704C202.409 20.704 209.225 22.432 214.313 25.888ZM313.318 29.488V112H302.806L248.374 72.688V59.872L302.806 35.392V29.488H236.421V20.416H324.118V29.488H313.318ZM302.806 98.464V46.624L259.174 66.784L302.806 98.464Z" fill="white"/>
</svg>
